<svg xmlns="http://www.w3.org/2000/svg" width="70" height="70" viewBox="0 0 70 70">
  <g id="Group_168" data-name="Group 168" transform="translate(-201 -163)">
    <rect id="Rectangle_113" data-name="Rectangle 113" width="70" height="70" rx="16" transform="translate(201 163)" fill="#43b02a"/>
    <path id="Path_61" data-name="Path 61" d="M24.8,4H18.873V1.2a1.218,1.218,0,0,0-1.2-1.2H8.432a1.218,1.218,0,0,0-1.2,1.2V4H1.2a1.2,1.2,0,1,0,0,2.4h.8L4.919,29.8A1.384,1.384,0,0,0,6.224,31H19.876a1.2,1.2,0,0,0,1.2-1.1L23.992,6.5h.8A1.218,1.218,0,0,0,26,5.3,1.307,1.307,0,0,0,24.8,4ZM9.737,2.5h6.625V4H9.737Zm9.035,26H7.328l-2.71-22H21.483Z" transform="translate(223 181)" fill="#fff"/>
  </g>
</svg>
