<svg xmlns="http://www.w3.org/2000/svg" width="36" height="37" viewBox="0 0 36 37">
  <g id="Group_44" data-name="Group 44" transform="translate(-118.549 -31.326)">
    <path id="Path_76" data-name="Path 76" d="M139.989,68.326h-6.882a2.147,2.147,0,0,1-2.1-1.743l-.559-3.945a13.862,13.862,0,0,1-1.928-1.125l-3.635,1.463a2.155,2.155,0,0,1-2.64-.963L118.82,56.08a2.152,2.152,0,0,1,.534-2.73l3.071-2.394c-.031-.361-.048-.742-.048-1.129a10.208,10.208,0,0,1,.071-1.139l-3.06-2.384a2.071,2.071,0,0,1-.535-2.725l3.423-5.962a2.113,2.113,0,0,1,2.587-.954l3.677,1.478a14.334,14.334,0,0,1,1.924-1.124l.547-3.864a2.134,2.134,0,0,1,2.1-1.826h6.882a2.132,2.132,0,0,1,2.108,1.8l.552,3.893a13.818,13.818,0,0,1,1.927,1.124l3.636-1.462a2.147,2.147,0,0,1,2.639.965l3.426,5.93a2.149,2.149,0,0,1-.537,2.732L150.672,48.7c.03.358.047.735.047,1.129s-.014.759-.042,1.124l3.054,2.4a2.087,2.087,0,0,1,.544,2.7l-3.456,5.986a2.108,2.108,0,0,1-2.585.952l-3.67-1.476a13.74,13.74,0,0,1-1.93,1.123l-.548,3.863A2.107,2.107,0,0,1,139.989,68.326Zm-.411-2.172,0,.013Zm-6.129-.362h6.18l.7-4.927L141,60.59a11.089,11.089,0,0,0,2.606-1.516l.573-.444,4.612,1.855,3.094-5.359L148,52.063l.094-.716a11.449,11.449,0,0,0,.1-1.522,9.205,9.205,0,0,0-.107-1.479l-.124-.744,3.947-3.078-3.1-5.36-4.6,1.855-.572-.434a11.335,11.335,0,0,0-2.615-1.523l-.674-.275-.7-4.929h-6.181l-.7,4.929-.674.275a11.733,11.733,0,0,0-2.618,1.524l-.571.432-4.6-1.851-3.078,5.358,3.95,3.076-.124.745a8.687,8.687,0,0,0-.035,2.96l.122.744-3.946,3.077,3.1,5.36,4.6-1.855.571.434a11.43,11.43,0,0,0,2.616,1.524l.673.275Zm15.17-5.009-.009.015Zm-24.175-.025.007.012Zm27.733-5.4.022.018Zm-31.269-.005h0ZM152.189,44.3l0,0Zm-31.3-.039.037.028A.362.362,0,0,0,120.89,44.264Zm27.754-5.382.008.013Zm-24.16-.027-.008.014Zm12.064,18.7a7.729,7.729,0,1,1,7.718-7.729A7.733,7.733,0,0,1,136.548,57.555Zm0-12.925a5.2,5.2,0,1,0,5.187,5.2A5.2,5.2,0,0,0,136.548,44.631Z" fill="#fff"/>
  </g>
</svg>
