<svg xmlns="http://www.w3.org/2000/svg" width="27" height="38" viewBox="0 0 27 38">
  <path id="Path_79" data-name="Path 79" d="M61.576,70.687l-.953-1.053c-.512-.565-12.547-13.963-12.547-23.484a13.5,13.5,0,0,1,27,0c0,9.521-12.036,22.919-12.548,23.484Zm0-35.44a10.931,10.931,0,0,0-10.933,10.9c0,7.089,8.112,17.323,10.933,20.667C64.4,63.474,72.509,53.24,72.509,46.151A10.93,10.93,0,0,0,61.576,35.247Zm0,16.535a5.631,5.631,0,1,1,5.646-5.631A5.645,5.645,0,0,1,61.576,51.782Zm0-8.7a3.072,3.072,0,1,0,3.08,3.072A3.079,3.079,0,0,0,61.576,43.079Z" transform="translate(-48.076 -32.687)" fill="#fff"/>
</svg>
