<svg xmlns="http://www.w3.org/2000/svg" xmlns:xlink="http://www.w3.org/1999/xlink" width="70" height="70" viewBox="0 0 70 70">
  <defs>
    <clipPath id="clip-path">
      <rect width="70" height="70" fill="none"/>
    </clipPath>
    <clipPath id="clip-path-2">
      <path id="Path_10" data-name="Path 10" d="M0,0H30V30H0Z" fill="#fff"/>
    </clipPath>
  </defs>
  <g id="Repeat_Grid_1" data-name="Repeat Grid 1" clip-path="url(#clip-path)">
    <g id="Group_193" data-name="Group 193" transform="translate(-290)">
      <rect id="Rectangle_23" data-name="Rectangle 23" width="70" height="70" transform="translate(290)" fill="#136f63"/>
      <g id="timeline-24px" transform="translate(310 21)" clip-path="url(#clip-path-2)">
        <path id="Path_9" data-name="Path 9" d="M28.5,8.5A2.507,2.507,0,0,1,26,11a2.125,2.125,0,0,1-.638-.087l-4.45,4.438A2.208,2.208,0,0,1,21,16a2.5,2.5,0,0,1-5,0,2.208,2.208,0,0,1,.087-.65L12.9,12.162a2.458,2.458,0,0,1-1.3,0l-5.687,5.7A2.125,2.125,0,0,1,6,18.5,2.5,2.5,0,1,1,3.5,16a2.125,2.125,0,0,1,.637.087l5.7-5.687a2.208,2.208,0,0,1-.087-.65,2.5,2.5,0,0,1,5,0,2.208,2.208,0,0,1-.087.65l3.188,3.188a2.458,2.458,0,0,1,1.3,0l4.437-4.45A2.125,2.125,0,0,1,23.5,8.5a2.5,2.5,0,0,1,5,0Z" transform="translate(0.25 1.5)" fill="#fff"/>
      </g>
    </g>
  </g>
</svg>
