<svg xmlns="http://www.w3.org/2000/svg" width="23" height="44.678" viewBox="0 0 23 44.678">
  <g id="Group_28" data-name="Group 28" transform="translate(-351 -337)">
    <rect id="Rectangle_173" data-name="Rectangle 173" width="15" height="1" transform="translate(355 379)" fill="#43b02a"/>
    <path id="Path_66" data-name="Path 66" d="M7150.108,369c.007.684,0,3.35.853,4.661a9.94,9.94,0,0,0,2.447,2.373l.686.946.884.865.567,1.836h-5.777l-2.034-3.647-.542-7.4v-3.959l1.376-1.663a2.075,2.075,0,0,1,1.2-.794c.664-.065,3.64,0,3.64,0l-.676,1.553a1.551,1.551,0,0,0-.793.9c-.245.685-.978,3.315-.978,3.315S7150.1,368.312,7150.108,369Z" transform="translate(-6796 2)" fill="#53565a"/>
    <path id="Path_67" data-name="Path 67" d="M7152.628,369c-.007.684,0,3.35-.853,4.661a9.94,9.94,0,0,1-2.447,2.373l-.686.946-.884.865-.567,1.836h5.777L7155,376.03l.542-7.4v-3.959l-1.376-1.663a2.075,2.075,0,0,0-1.2-.794c-.664-.065-3.64,0-3.64,0l.676,1.553a1.551,1.551,0,0,1,.793.9c.245.685.978,3.315.978,3.315S7152.635,368.312,7152.628,369Z" transform="translate(-6782 2)" fill="#53565a"/>
    <rect id="Rectangle_174" data-name="Rectangle 174" width="6" height="23" transform="translate(351 343)" fill="#53565a"/>
    <rect id="Rectangle_175" data-name="Rectangle 175" width="6" height="23" transform="translate(368 343)" fill="#53565a"/>
    <path id="Path_68" data-name="Path 68" d="M15.5,28.2V1.2A1.216,1.216,0,0,0,14.3,0H4.3A1.309,1.309,0,0,0,3,1.2V28.1a9.319,9.319,0,0,0-3,6.8,9.2,9.2,0,1,0,18.4,0A8.655,8.655,0,0,0,15.5,28.2ZM9.2,41.8A6.807,6.807,0,0,1,2.4,35a6.736,6.736,0,0,1,2.5-5.3,1.231,1.231,0,0,0,.5-1V2.5H13V5.3H10A1.216,1.216,0,0,0,8.8,6.5,1.389,1.389,0,0,0,10,7.8h3v2.5H9a1.216,1.216,0,0,0-1.2,1.2A1.29,1.29,0,0,0,9,12.7h4v2.5H10a1.216,1.216,0,0,0-1.2,1.2A1.29,1.29,0,0,0,10,17.6h3v2.5H9a1.216,1.216,0,0,0-1.2,1.2A1.29,1.29,0,0,0,9,22.5h4v5.9a1.389,1.389,0,0,0,.5,1A7.838,7.838,0,0,1,16,35,6.807,6.807,0,0,1,9.2,41.8Z" transform="translate(353 337)" fill="#fff"/>
  </g>
</svg>
