<svg xmlns="http://www.w3.org/2000/svg" width="33.287" height="22.885" viewBox="0 0 33.287 22.885">
  <path id="Path_137" data-name="Path 137" d="M33.208,8.255,30.96.94A1.435,1.435,0,0,0,29.734,0H3.475A1.435,1.435,0,0,0,2.249.94L0,8.255A1.478,1.478,0,0,0,.205,9.4a1.249,1.249,0,0,0,1.022.522H2.249v11.7a1.257,1.257,0,0,0,1.226,1.254H29.734a1.256,1.256,0,0,0,1.226-1.254V9.927h1.022A1.249,1.249,0,0,0,33,9.4,1.478,1.478,0,0,0,33.208,8.255ZM4.5,2.612H28.814l1.43,4.7H2.964ZM28.508,20.481H4.7V10.032H28.508Z" transform="translate(0.039)" fill="#fff"/>
</svg>
