<svg xmlns="http://www.w3.org/2000/svg" width="27.234" height="32.472" viewBox="0 0 27.234 32.472">
  <path id="Path_136" data-name="Path 136" d="M25.973,4.19h-6.2V1.257A1.276,1.276,0,0,0,18.507,0H8.833A1.276,1.276,0,0,0,7.571,1.257V4.19H1.262a1.257,1.257,0,1,0,0,2.514H2.1L5.152,31.215a1.45,1.45,0,0,0,1.367,1.257h14.3a1.261,1.261,0,0,0,1.262-1.152L25.131,6.809h.841a1.276,1.276,0,0,0,1.262-1.257A1.369,1.369,0,0,0,25.973,4.19ZM10.2,2.619h6.94V4.19H10.2Zm9.464,27.234H7.676L4.837,6.809H22.5Z" fill="#205c40"/>
</svg>
