<svg xmlns="http://www.w3.org/2000/svg" width="16" height="16" viewBox="0 0 16 16">
  <g id="icon_1_" transform="translate(-51 -215)">
    <path id="path_1_" d="M59,222.969a3.985,3.985,0,1,1,4-3.985,3.984,3.984,0,0,1-4,3.985Zm0-1.471a2.513,2.513,0,1,0-2.523-2.513h0A2.491,2.491,0,0,0,59,221.5Zm7.569,5.149a7.147,7.147,0,0,1,.308,1.226,6.73,6.73,0,0,1,.123,1.1v.184A1.836,1.836,0,0,1,65.215,231H52.785A1.8,1.8,0,0,1,51,229.161v-.184c.062-.368.062-.736.123-1.1a4.483,4.483,0,0,1,.308-1.226c.554-1.226,4.677-2.943,7.569-2.943S66.015,225.421,66.569,226.648Zm-1.415.552a1.87,1.87,0,0,0-.431-.307,12.109,12.109,0,0,0-1.538-.8,11.305,11.305,0,0,0-4.246-.981,11.306,11.306,0,0,0-4.246.981,12.109,12.109,0,0,0-1.538.8c-.123.123-.308.184-.431.307l-.062.061c-.062.245-.123.49-.185.8a3.227,3.227,0,0,0-.062.8v.307a.4.4,0,0,0,.369.368H65.154a.354.354,0,0,0,.369-.368v-.307c0-.245-.062-.49-.062-.8a3.732,3.732,0,0,0-.185-.8C65.215,227.261,65.215,227.2,65.154,227.2Z" fill="#205c40"/>
  </g>
</svg>
