<svg xmlns="http://www.w3.org/2000/svg" width="22" height="22" viewBox="0 0 22 22">
  <g id="icon_1_" transform="translate(-51 -215)">
    <path id="path_1_" d="M62,225.958a5.479,5.479,0,1,1,5.5-5.479,5.479,5.479,0,0,1-5.5,5.479Zm0-2.023a3.456,3.456,0,1,0-3.469-3.456h0A3.425,3.425,0,0,0,62,223.935Zm10.408,7.08a9.828,9.828,0,0,1,.423,1.686A9.253,9.253,0,0,1,73,234.218v.253A2.524,2.524,0,0,1,70.546,237H53.454A2.47,2.47,0,0,1,51,234.471v-.253c.085-.506.085-1.011.169-1.517a6.164,6.164,0,0,1,.423-1.686c.762-1.686,6.431-4.046,10.408-4.046S71.646,229.329,72.408,231.015Zm-1.946.759a2.572,2.572,0,0,0-.592-.421,16.657,16.657,0,0,0-2.115-1.1,15.545,15.545,0,0,0-5.838-1.349,15.545,15.545,0,0,0-5.838,1.349,16.655,16.655,0,0,0-2.115,1.1c-.169.169-.423.253-.592.421l-.085.084c-.085.337-.169.674-.254,1.1a4.436,4.436,0,0,0-.085,1.1v.421a.545.545,0,0,0,.508.506H70.462a.487.487,0,0,0,.508-.506v-.421c0-.337-.085-.674-.085-1.1a5.13,5.13,0,0,0-.254-1.1C70.546,231.858,70.546,231.774,70.462,231.774Z" transform="translate(0 0)" fill="#43b02a"/>
  </g>
</svg>
